<?xml version="1.0" encoding="UTF-8"?>
<!DOCTYPE svg PUBLIC "-//W3C//DTD SVG 1.1//EN" "http://www.w3.org/Graphics/SVG/1.1/DTD/svg11.dtd">
<svg xmlns="http://www.w3.org/2000/svg" version="1.1" width="900px" height="500px" style="shape-rendering:geometricPrecision; text-rendering:geometricPrecision; image-rendering:optimizeQuality; fill-rule:evenodd; clip-rule:evenodd" xmlns:xlink="http://www.w3.org/1999/xlink">
<g><path style="opacity:1" fill="#fefefe" d="M -0.5,-0.5 C 299.5,-0.5 599.5,-0.5 899.5,-0.5C 899.5,166.167 899.5,332.833 899.5,499.5C 599.5,499.5 299.5,499.5 -0.5,499.5C -0.5,332.833 -0.5,166.167 -0.5,-0.5 Z"/></g>
<g><path style="opacity:1" fill="#da2128" d="M 879.5,152.5 C 880.665,212.999 880.832,273.665 880,334.5C 878.474,340.026 874.974,343.526 869.5,345C 857.171,345.5 844.838,345.667 832.5,345.5C 832.333,290.499 832.5,235.499 833,180.5C 835.392,174.774 839.226,170.274 844.5,167C 856.307,162.239 867.974,157.405 879.5,152.5 Z"/></g>
<g><path style="opacity:1" fill="#da2027" d="M 816.5,201.5 C 817.499,244.33 817.832,287.33 817.5,330.5C 817.422,338.076 813.755,342.909 806.5,345C 794.171,345.5 781.838,345.667 769.5,345.5C 769.333,307.165 769.5,268.832 770,230.5C 771.922,224.57 775.422,219.737 780.5,216C 792.489,211.061 804.489,206.228 816.5,201.5 Z"/></g>
<g><path style="opacity:1" fill="#f9dcdd" d="M 816.5,201.5 C 816.56,200.957 816.893,200.624 817.5,200.5C 818.831,243.998 818.831,287.331 817.5,330.5C 817.832,287.33 817.499,244.33 816.5,201.5 Z"/></g>
<g><path style="opacity:1" fill="#da2228" d="M 273.5,249.5 C 274.167,262.673 274.833,276.006 275.5,289.5C 276.107,289.376 276.44,289.043 276.5,288.5C 282.671,279.271 291.338,275.771 302.5,278C 310.858,280.36 315.691,285.86 317,294.5C 317.5,311.163 317.667,327.83 317.5,344.5C 310.167,344.5 302.833,344.5 295.5,344.5C 295.667,329.83 295.5,315.163 295,300.5C 291.173,295.442 286.34,294.275 280.5,297C 278.622,298.543 277.122,300.376 276,302.5C 275.5,316.496 275.333,330.496 275.5,344.5C 268.167,344.5 260.833,344.5 253.5,344.5C 253.333,315.498 253.5,286.498 254,257.5C 260.225,254.148 266.725,251.481 273.5,249.5 Z"/></g>
<g><path style="opacity:1" fill="#e14f53" d="M 273.5,249.5 C 273.56,248.957 273.893,248.624 274.5,248.5C 275.167,261.994 275.833,275.327 276.5,288.5C 276.44,289.043 276.107,289.376 275.5,289.5C 274.833,276.006 274.167,262.673 273.5,249.5 Z"/></g>
<g><path style="opacity:1" fill="#da2128" d="M 752.5,249.5 C 753.833,263.484 754.499,277.817 754.5,292.5C 754.644,307.898 754.144,323.231 753,338.5C 750.635,341.869 747.468,344.036 743.5,345C 731.171,345.5 718.838,345.667 706.5,345.5C 706.031,322.434 706.531,299.434 708,276.5C 709.979,272.044 712.813,268.21 716.5,265C 728.478,259.517 740.478,254.35 752.5,249.5 Z"/></g>
<g><path style="opacity:1" fill="#da2429" d="M 228.5,266.5 C 229.5,266.5 230.5,266.5 231.5,266.5C 231.5,270.833 231.5,275.167 231.5,279.5C 235.833,279.5 240.167,279.5 244.5,279.5C 244.5,284.5 244.5,289.5 244.5,294.5C 240.167,294.5 235.833,294.5 231.5,294.5C 231.334,304.839 231.5,315.172 232,325.5C 235.309,328.647 239.142,329.313 243.5,327.5C 244.495,333.128 244.829,338.794 244.5,344.5C 237.523,345.457 230.523,345.623 223.5,345C 215.895,343.062 211.395,338.228 210,330.5C 209.5,318.505 209.333,306.505 209.5,294.5C 206.833,294.5 204.167,294.5 201.5,294.5C 201.5,289.5 201.5,284.5 201.5,279.5C 204.167,279.5 206.833,279.5 209.5,279.5C 209.215,277.712 209.548,276.045 210.5,274.5C 216.685,272.004 222.685,269.337 228.5,266.5 Z"/></g>
<g><path style="opacity:1" fill="#da2328" d="M 39.5,279.5 C 39.1826,282.572 39.5159,285.572 40.5,288.5C 41.1067,288.376 41.44,288.043 41.5,287.5C 51.4102,275.899 62.5768,274.565 75,283.5C 76,285.167 77,286.833 78,288.5C 87.2328,277.123 98.3995,274.623 111.5,281C 116.529,284.56 119.362,289.393 120,295.5C 120.5,311.83 120.667,328.163 120.5,344.5C 113.167,344.5 105.833,344.5 98.5,344.5C 98.6666,329.83 98.4999,315.163 98,300.5C 93.8788,296.185 89.0454,295.351 83.5,298C 82.7894,299.255 81.956,300.421 81,301.5C 80.5001,315.829 80.3334,330.163 80.5,344.5C 73.1667,344.5 65.8333,344.5 58.5,344.5C 58.6666,330.163 58.4999,315.829 58,301.5C 56.6011,297.762 53.9345,296.096 50,296.5C 45.7997,296.098 42.7997,297.765 41,301.5C 40.5001,315.829 40.3334,330.163 40.5,344.5C 33.1667,344.5 25.8333,344.5 18.5,344.5C 18.5,322.833 18.5,301.167 18.5,279.5C 25.5,279.5 32.5,279.5 39.5,279.5 Z"/></g>
<g><path style="opacity:1" fill="#da2429" d="M 156.5,277.5 C 172.422,275.743 185.255,281.076 195,293.5C 202.83,310.681 199.997,325.848 186.5,339C 171.207,347.588 155.874,347.588 140.5,339C 130.436,329.262 126.603,317.429 129,303.5C 133.196,289.468 142.363,280.801 156.5,277.5 Z"/></g>
<g><path style="opacity:1" fill="#da2329" d="M 393.5,316.5 C 378.167,316.5 362.833,316.5 347.5,316.5C 347.263,317.791 347.596,318.791 348.5,319.5C 350.879,328.822 356.879,332.322 366.5,330C 369.386,328.615 371.386,326.449 372.5,323.5C 379.167,323.5 385.833,323.5 392.5,323.5C 392.5,324.5 392.5,325.5 392.5,326.5C 389.155,336.671 382.155,342.838 371.5,345C 355.438,348.602 341.938,344.435 331,332.5C 323.388,318.265 323.721,304.265 332,290.5C 345.393,276.549 360.893,273.715 378.5,282C 390.33,290.435 395.33,301.935 393.5,316.5 Z"/></g>
<g><path style="opacity:1" fill="#da2329" d="M 505.5,296.5 C 499.25,298.459 492.584,299.126 485.5,298.5C 485.249,296.83 484.582,295.33 483.5,294C 480.262,292.632 476.928,292.299 473.5,293C 469.973,295.303 469.64,297.97 472.5,301C 481.281,302.49 489.948,304.49 498.5,307C 502.388,309.222 505.221,312.388 507,316.5C 510.449,332.365 504.282,341.865 488.5,345C 480.103,345.87 471.77,345.537 463.5,344C 455.708,341.05 451.042,335.55 449.5,327.5C 449.5,326.5 449.5,325.5 449.5,324.5C 456.167,324.5 462.833,324.5 469.5,324.5C 472.348,331.517 477.348,333.35 484.5,330C 487.625,325.238 486.292,322.238 480.5,321C 473.705,320.301 467.039,318.968 460.5,317C 453.177,313.53 449.51,307.697 449.5,299.5C 450.21,288.619 455.876,281.785 466.5,279C 473.5,278.333 480.5,278.333 487.5,279C 497.313,280.981 503.313,286.814 505.5,296.5 Z"/></g>
<g><path style="opacity:1" fill="#da2429" d="M 539.5,277.5 C 557.105,275.389 570.605,281.722 580,296.5C 585.37,311.591 582.87,325.091 572.5,337C 561.036,345.428 548.37,347.762 534.5,344C 519.329,338.637 511.662,327.804 511.5,311.5C 513.162,293.839 522.495,282.506 539.5,277.5 Z"/></g>
<g><path style="opacity:1" fill="#da2127" d="M 591.5,344.5 C 591.5,323.167 591.5,301.833 591.5,280.5C 598.5,280.5 605.5,280.5 612.5,280.5C 612.335,283.518 612.502,286.518 613,289.5C 613.717,288.956 614.217,288.289 614.5,287.5C 622.577,277.533 632.577,275.033 644.5,280C 650.317,283.151 653.817,287.984 655,294.5C 655.5,311.163 655.667,327.83 655.5,344.5C 648.167,344.5 640.833,344.5 633.5,344.5C 633.667,330.163 633.5,315.829 633,301.5C 628.755,294.983 623.255,293.817 616.5,298C 614.898,299.935 613.731,302.101 613,304.5C 612.5,317.829 612.333,331.163 612.5,344.5C 605.5,344.5 598.5,344.5 591.5,344.5 Z"/></g>
<g><path style="opacity:1" fill="#ec8f93" d="M 39.5,279.5 C 40.1667,282.167 40.8333,284.833 41.5,287.5C 41.44,288.043 41.1067,288.376 40.5,288.5C 39.5159,285.572 39.1826,282.572 39.5,279.5 Z"/></g>
<g><path style="opacity:1" fill="#da2329" d="M 440.5,278.5 C 442.167,278.5 443.833,278.5 445.5,278.5C 445.5,285.5 445.5,292.5 445.5,299.5C 436.883,297.901 430.05,300.567 425,307.5C 424.5,319.829 424.333,332.162 424.5,344.5C 417.167,344.5 409.833,344.5 402.5,344.5C 402.5,322.833 402.5,301.167 402.5,279.5C 409.833,279.5 417.167,279.5 424.5,279.5C 424.335,283.182 424.501,286.848 425,290.5C 428.644,284.335 433.811,280.335 440.5,278.5 Z"/></g>
<g><path style="opacity:1" fill="#e45d61" d="M 614.5,287.5 C 614.217,288.289 613.717,288.956 613,289.5C 612.502,286.518 612.335,283.518 612.5,280.5C 605.5,280.5 598.5,280.5 591.5,280.5C 591.5,301.833 591.5,323.167 591.5,344.5C 590.503,323.006 590.169,301.34 590.5,279.5C 598.167,279.5 605.833,279.5 613.5,279.5C 613.194,282.385 613.527,285.052 614.5,287.5 Z"/></g>
<g><path style="opacity:1" fill="#fef9f9" d="M 355.5,292.5 C 365.79,290.283 371.123,294.283 371.5,304.5C 363.833,304.5 356.167,304.5 348.5,304.5C 349.189,299.492 351.522,295.492 355.5,292.5 Z"/></g>
<g><path style="opacity:1" fill="#fefafa" d="M 158.5,294.5 C 167.003,292.666 172.837,295.666 176,303.5C 176.667,309.167 176.667,314.833 176,320.5C 172.157,328.67 165.991,331.17 157.5,328C 154.533,325.9 152.7,323.066 152,319.5C 151.333,313.833 151.333,308.167 152,302.5C 153.479,299.172 155.645,296.506 158.5,294.5 Z"/></g>
<g><path style="opacity:1" fill="#fefafa" d="M 542.5,294.5 C 551.963,292.582 557.797,296.248 560,305.5C 560.893,311.672 560.227,317.672 558,323.5C 552.787,329.863 546.621,331.029 539.5,327C 537.064,324.293 535.564,321.127 535,317.5C 532.456,307.968 534.956,300.301 542.5,294.5 Z"/></g>
<g><path style="opacity:1" fill="#ed9699" d="M 505.5,296.5 C 506.404,297.209 506.737,298.209 506.5,299.5C 499.313,299.825 492.313,299.491 485.5,298.5C 492.584,299.126 499.25,298.459 505.5,296.5 Z"/></g>
<g><path style="opacity:1" fill="#ec8f93" d="M 393.5,316.5 C 378.305,316.839 363.305,317.839 348.5,319.5C 347.596,318.791 347.263,317.791 347.5,316.5C 362.833,316.5 378.167,316.5 393.5,316.5 Z"/></g>
<g><path style="opacity:1" fill="#e45d61" d="M 372.5,323.5 C 379.313,322.509 386.313,322.175 393.5,322.5C 393.768,324.099 393.434,325.432 392.5,326.5C 392.5,325.5 392.5,324.5 392.5,323.5C 385.833,323.5 379.167,323.5 372.5,323.5 Z"/></g>
<g><path style="opacity:1" fill="#ed9094" d="M 469.5,324.5 C 462.833,324.5 456.167,324.5 449.5,324.5C 449.5,325.5 449.5,326.5 449.5,327.5C 448.566,326.432 448.232,325.099 448.5,323.5C 455.687,323.175 462.687,323.509 469.5,324.5 Z"/></g>
</svg>
